<svg width="7485" height="13660" viewBox="0 0 7485 13660" fill="none" xmlns="http://www.w3.org/2000/svg">
<path d="M4823.59 706.244C4867.76 687.281 4914.75 678 4962.82 678H6499C6699.48 678 6862 840.521 6862 1041V4106C6862 4306.48 6699.48 4469 6499 4469H4890H1280.05C994.808 4469 823.436 4156.86 981.778 3919.6C1395.77 3299.29 2079.38 2327.11 2536 1948C3147 1440.7 4507.68 841.88 4823.59 706.244Z" fill="#B80A0A"/>
<path d="M4823.09 12953.8C4867.26 12972.7 4914.25 12982 4962.32 12982H6498.5C6698.98 12982 6861.5 12819.5 6861.5 12619V9554C6861.5 9353.52 6698.98 9191 6498.5 9191H4889.5H1279.55C994.308 9191 822.936 9503.14 981.278 9740.4C1395.27 10360.7 2078.88 11332.9 2535.5 11712C3146.5 12219.3 4507.18 12818.1 4823.09 12953.8Z" fill="#B80A0A"/>
<rect x="927" y="4147" width="2654" height="5373" fill="#B80A0A"/>
<path d="M6000 9191H6499C6699.48 9191 6862 9353.52 6862 9554V12619C6862 12819.5 6699.48 12982 6499 12982H6000V9191Z" fill="#920E0E"/>
<path d="M6000 678H6499C6699.48 678 6862 840.521 6862 1041V4106C6862 4306.48 6699.48 4469 6499 4469H6000V678Z" fill="#920E0E"/>
</svg>
